<svg width="20" height="20" viewBox="0 0 20 20" fill="none" xmlns="http://www.w3.org/2000/svg">
<path d="M3.75 6C3.55109 6 3.36032 6.07902 3.21967 6.21967C3.07902 6.36032 3 6.55109 3 6.75C3 6.94891 3.07902 7.13968 3.21967 7.28033C3.36032 7.42098 3.55109 7.5 3.75 7.5H16.25C16.4489 7.5 16.6397 7.42098 16.7803 7.28033C16.921 7.13968 17 6.94891 17 6.75C17 6.55109 16.921 6.36032 16.7803 6.21967C16.6397 6.07902 16.4489 6 16.25 6H3.75ZM3.75 13.5C3.55109 13.5 3.36032 13.579 3.21967 13.7197C3.07902 13.8603 3 14.0511 3 14.25C3 14.4489 3.07902 14.6397 3.21967 14.7803C3.36032 14.921 3.55109 15 3.75 15H16.25C16.4489 15 16.6397 14.921 16.7803 14.7803C16.921 14.6397 17 14.4489 17 14.25C17 14.0511 16.921 13.8603 16.7803 13.7197C16.6397 13.579 16.4489 13.5 16.25 13.5H3.75Z" fill="black"/>
</svg>
