<svg width="24" height="24" viewBox="0 0 24 24" fill="none" xmlns="http://www.w3.org/2000/svg">
<path d="M7.5 4C5.57 4 4 5.57 4 7.5C4 9.43 5.57 11 7.5 11C9.43 11 11 9.43 11 7.5C11 5.57 9.43 4 7.5 4ZM7.5 9C6.67 9 6 8.33 6 7.5C6 6.67 6.67 6 7.5 6C8.33 6 9 6.67 9 7.5C9 8.33 8.33 9 7.5 9ZM16.5 13C14.57 13 13 14.57 13 16.5C13 18.43 14.57 20 16.5 20C18.43 20 20 18.43 20 16.5C20 14.57 18.43 13 16.5 13ZM16.5 18C15.67 18 15 17.33 15 16.5C15 15.67 15.67 15 16.5 15C17.33 15 18 15.67 18 16.5C18 17.33 17.33 18 16.5 18ZM19.29 4.71C19.68 5.1 19.68 5.73 19.29 6.12L6.12 19.29C6.02742 19.3826 5.91751 19.456 5.79654 19.5061C5.67558 19.5562 5.54593 19.582 5.415 19.582C5.28407 19.582 5.15442 19.5562 5.03346 19.5061C4.91249 19.456 4.80258 19.3826 4.71 19.29C4.61742 19.1974 4.54398 19.0875 4.49387 18.9665C4.44377 18.8456 4.41798 18.7159 4.41798 18.585C4.41798 18.4541 4.44377 18.3244 4.49387 18.2035C4.54398 18.0825 4.61742 17.9726 4.71 17.88L17.88 4.71C17.9725 4.6173 18.0824 4.54375 18.2034 4.49357C18.3243 4.44339 18.454 4.41756 18.585 4.41756C18.716 4.41756 18.8457 4.44339 18.9666 4.49357C19.0876 4.54375 19.1975 4.6173 19.29 4.71Z" fill="black"/>
</svg>
